<svg xmlns="http://www.w3.org/2000/svg" id="cog-solid_1_" width="26" height="27.517" data-name="cog-solid (1)" viewBox="0 0 26 27.517">
    <defs>
        <style>
            .cls-1{fill:#f0f0f0}
        </style>
    </defs>
    <path id="cog-solid_1_2" d="M44.312 25.164L41.979 23.8a10.824 10.824 0 0 0 0-3.894l2.333-1.365a.674.674 0 0 0 .3-.777 13.861 13.861 0 0 0-3-5.248.653.653 0 0 0-.81-.128l-2.333 1.365a10.3 10.3 0 0 0-3.324-1.953V9.081a.663.663 0 0 0-.515-.649 13.591 13.591 0 0 0-5.98 0 .663.663 0 0 0-.515.649v2.729a10.628 10.628 0 0 0-3.329 1.947l-2.326-1.364a.645.645 0 0 0-.81.128 13.777 13.777 0 0 0-3 5.248.667.667 0 0 0 .3.777l2.333 1.365a10.824 10.824 0 0 0 0 3.894L18.97 25.17a.674.674 0 0 0-.3.777 13.861 13.861 0 0 0 3 5.248.653.653 0 0 0 .81.128l2.333-1.365a10.3 10.3 0 0 0 3.329 1.942v2.729a.663.663 0 0 0 .515.649 13.591 13.591 0 0 0 5.98 0 .663.663 0 0 0 .515-.649V31.9a10.628 10.628 0 0 0 3.329-1.947l2.333 1.365a.645.645 0 0 0 .81-.128 13.777 13.777 0 0 0 3-5.248.689.689 0 0 0-.312-.778zM31.641 26.29a4.439 4.439 0 1 1 4.381-4.438 4.416 4.416 0 0 1-4.381 4.438z" class="cls-1" data-name="cog-solid (1)" transform="translate(-18.644 -8.099)"/>
</svg>
