<svg xmlns="http://www.w3.org/2000/svg" width="39.227" height="29.419" viewBox="0 0 39.227 29.419">
    <defs>
        <style>
            .cls-1{fill:#e7e7e7}
        </style>
    </defs>
    <path id="sign-out-solid" d="M13.79 93.419H7.355A7.357 7.357 0 0 1 0 86.064V71.355A7.357 7.357 0 0 1 7.355 64h6.435a.922.922 0 0 1 .919.919v3.064a.922.922 0 0 1-.919.919H7.355A2.449 2.449 0 0 0 4.9 71.355v14.709a2.449 2.449 0 0 0 2.452 2.452h6.438a.922.922 0 0 1 .919.919V92.5a.922.922 0 0 1-.919.919zM22.823 70.2l5.945 5.447H14.1a1.834 1.834 0 0 0-1.839 1.839v2.452a1.834 1.834 0 0 0 1.839 1.836h14.668l-5.945 5.447a1.844 1.844 0 0 0-.061 2.658l1.678 1.678a1.845 1.845 0 0 0 2.6.008l11.641-11.553a1.836 1.836 0 0 0 0-2.612L27.044 65.862a1.838 1.838 0 0 0-2.6.008l-1.678 1.678a1.835 1.835 0 0 0 .057 2.652z" class="cls-1" transform="translate(0 -64)"/>
</svg>
